<svg width="24" height="25" viewBox="0 0 24 25" fill="none" xmlns="http://www.w3.org/2000/svg">
<path fill-rule="evenodd" clip-rule="evenodd" d="M12.25 2.5C16.799 2.5 20.5 6.229 20.5 10.813C20.5 16.448 14.044 22 12.25 22C10.456 22 4 16.448 4 10.813C4 6.229 7.701 2.5 12.25 2.5ZM12.25 4C8.528 4 5.5 7.057 5.5 10.813C5.5 15.592 11.124 20.248 12.25 20.496C13.376 20.247 19 15.591 19 10.813C19 7.057 15.972 4 12.25 4ZM12.251 7.5C14.043 7.5 15.501 8.958 15.501 10.751C15.501 12.543 14.043 14 12.251 14C10.459 14 9.001 12.543 9.001 10.751C9.001 8.958 10.459 7.5 12.251 7.5ZM12.251 9C11.286 9 10.501 9.785 10.501 10.751C10.501 11.716 11.286 12.5 12.251 12.5C13.216 12.5 14.001 11.716 14.001 10.751C14.001 9.785 13.216 9 12.251 9Z" fill="#010101"/>
</svg>
