<svg width="49" height="49" viewBox="0 0 49 49" fill="none" xmlns="http://www.w3.org/2000/svg">
<rect x="0.924988" y="0.5" width="48" height="48" rx="15" fill="#010101"/>
<path fill-rule="evenodd" clip-rule="evenodd" d="M28.741 14.051L25.213 12.383C25.033 12.299 24.829 12.299 24.649 12.383L21.109 14.051C20.605 14.291 20.377 14.903 20.617 15.407C20.785 15.779 21.157 15.995 21.541 15.995C21.685 15.995 21.829 15.959 21.973 15.899L23.905 14.987V17.471C23.905 18.035 24.361 18.491 24.925 18.491C25.489 18.491 25.945 18.035 25.945 17.471V14.987L27.877 15.899C28.381 16.139 28.993 15.923 29.233 15.407C29.473 14.891 29.257 14.291 28.741 14.051ZM27.877 20.927L24.925 22.319L21.973 20.927C21.469 20.687 20.857 20.903 20.617 21.419C20.377 21.923 20.593 22.535 21.109 22.775L23.869 24.071C23.869 24.095 23.863 24.116 23.857 24.137C23.851 24.158 23.845 24.179 23.845 24.203V26.699C23.845 27.263 24.301 27.719 24.865 27.719C25.429 27.719 25.885 27.263 25.885 26.699V24.203C25.885 24.191 25.882 24.179 25.879 24.167C25.876 24.155 25.873 24.143 25.873 24.131L28.753 22.775C29.257 22.535 29.485 21.923 29.245 21.419C28.993 20.915 28.381 20.687 27.877 20.927ZM32.545 15.923L35.701 17.435C35.941 17.543 36.085 17.783 36.085 18.035V21.671C36.085 22.235 35.629 22.691 35.065 22.691C34.501 22.691 34.045 22.235 34.045 21.671V20.327L32.377 21.107C32.233 21.167 32.089 21.203 31.945 21.203C31.561 21.203 31.189 20.987 31.021 20.615C30.781 20.111 31.009 19.499 31.513 19.259L33.169 18.479L31.669 17.759C31.165 17.519 30.949 16.907 31.189 16.403C31.429 15.899 32.041 15.683 32.545 15.923ZM18.337 19.259L16.681 18.479L18.181 17.759C18.685 17.519 18.901 16.907 18.661 16.403C18.421 15.887 17.809 15.671 17.305 15.923L14.149 17.435C13.909 17.543 13.765 17.783 13.765 18.035V21.659C13.765 22.223 14.221 22.679 14.785 22.679C15.349 22.679 15.805 22.235 15.805 21.671V20.315L17.473 21.095C17.617 21.167 17.761 21.203 17.905 21.203C18.289 21.203 18.661 20.987 18.829 20.615C19.069 20.111 18.853 19.499 18.337 19.259ZM34.045 27.515C34.045 26.951 34.501 26.495 35.065 26.495C35.629 26.495 36.085 26.951 36.097 27.515V31.139C36.097 31.403 35.941 31.643 35.713 31.751L32.557 33.263C32.413 33.323 32.257 33.359 32.113 33.359C31.729 33.359 31.369 33.143 31.189 32.783C30.949 32.279 31.165 31.667 31.669 31.427L33.169 30.707L31.513 29.927C30.997 29.687 30.781 29.087 31.021 28.571C31.261 28.055 31.873 27.839 32.377 28.079L34.045 28.859V27.515ZM18.829 28.559C18.589 28.055 17.977 27.827 17.473 28.067L15.805 28.859V27.515C15.805 26.951 15.349 26.495 14.785 26.495C14.221 26.495 13.765 26.951 13.765 27.515V31.151C13.765 31.403 13.909 31.643 14.137 31.751L17.293 33.263C17.437 33.335 17.581 33.359 17.737 33.359C18.121 33.359 18.481 33.143 18.661 32.783C18.901 32.279 18.685 31.667 18.181 31.427L16.681 30.707L18.337 29.927C18.853 29.687 19.069 29.075 18.829 28.559ZM25.945 34.031L27.877 33.119C28.381 32.879 28.993 33.095 29.233 33.611C29.473 34.115 29.245 34.727 28.741 34.967L25.213 36.623C25.033 36.707 24.817 36.707 24.637 36.623L21.109 34.967C20.593 34.727 20.377 34.115 20.617 33.611C20.857 33.095 21.469 32.879 21.973 33.119L23.905 34.031V31.547C23.905 30.983 24.361 30.527 24.925 30.527C25.489 30.527 25.945 30.983 25.945 31.547V34.031Z" fill="white"/>
</svg>
