<svg width="17" height="16" viewBox="0 0 17 16" fill="none" xmlns="http://www.w3.org/2000/svg">
<path d="M7.18335 12.9053C8.56958 12.9053 9.8479 12.457 10.8938 11.71L14.8284 15.6445C15.011 15.8271 15.2517 15.9185 15.509 15.9185C16.0486 15.9185 16.4304 15.5034 16.4304 14.9722C16.4304 14.7231 16.3474 14.4824 16.1648 14.3081L12.2551 10.3901C13.0769 9.31104 13.5667 7.97461 13.5667 6.52197C13.5667 3.01074 10.6946 0.138672 7.18335 0.138672C3.68042 0.138672 0.800049 3.00244 0.800049 6.52197C0.800049 10.0332 3.67212 12.9053 7.18335 12.9053ZM7.18335 11.5273C4.44409 11.5273 2.17798 9.26123 2.17798 6.52197C2.17798 3.78271 4.44409 1.5166 7.18335 1.5166C9.92261 1.5166 12.1887 3.78271 12.1887 6.52197C12.1887 9.26123 9.92261 11.5273 7.18335 11.5273Z" fill="#3C3C43" fill-opacity="0.6"/>
</svg>
