<svg width="17" height="25" viewBox="0 0 17 25" fill="none" xmlns="http://www.w3.org/2000/svg">
<path d="M4.23801 1.15269C6.85984 -0.370706 10.0825 -0.34408 12.6797 1.22244C15.2514 2.82086 16.8144 5.67358 16.8 8.7423C16.74 11.7909 15.064 14.6566 12.969 16.8719C11.7599 18.1562 10.4072 19.292 8.93867 20.2558C8.78743 20.3433 8.62176 20.4018 8.44984 20.4286C8.28438 20.4215 8.12324 20.3726 7.98096 20.2863C5.73897 18.838 3.77206 16.9894 2.17486 14.8293C0.838366 13.0262 0.0790625 10.8478 6.10352e-05 8.58987L0.0060445 8.26139C0.115168 5.31414 1.70982 2.62168 4.23801 1.15269ZM9.48878 6.07029C8.42295 5.61725 7.19411 5.86338 6.37604 6.69378C5.55797 7.52418 5.31203 8.77503 5.75306 9.8623C6.19408 10.9496 7.23508 11.6588 8.38999 11.6588C9.14659 11.6642 9.87389 11.3612 10.4098 10.8171C10.9458 10.2731 11.2458 9.53333 11.2432 8.76262C11.2472 7.58621 10.5546 6.52334 9.48878 6.07029Z" fill="#737373" fill-opacity="0.5"/>
<path opacity="0.4" d="M8.39984 24.0285C11.7136 24.0285 14.3998 23.4913 14.3998 22.8285C14.3998 22.1658 11.7136 21.6285 8.39984 21.6285C5.08613 21.6285 2.39984 22.1658 2.39984 22.8285C2.39984 23.4913 5.08613 24.0285 8.39984 24.0285Z" fill="#737373" fill-opacity="0.5"/>
</svg>
